<svg xmlns="http://www.w3.org/2000/svg" width="1427" height="426" fill="none" viewBox="0 0 1427 426"><g clip-path="url(#clip0_316_2)"><path fill="#1B1918" fill-rule="evenodd" d="M659.003 188C648.753 158.518 613.423 173.803 595.103 184C594.83 183.383 594.483 182.632 594.089 181.779C591.224 175.574 585.867 163.972 588.223 159.329C590.808 154.252 600.739 151.049 606.612 149.155C607.145 148.983 607.645 148.822 608.103 148.671C629.593 141.589 658.403 140.632 675.933 157.3C696.918 177.256 695.204 213.469 693.768 243.789C693.411 251.339 693.071 258.523 693.103 265C693.136 271.683 693.894 278.327 694.652 284.967C695.262 290.307 695.871 295.645 696.103 301L667.703 300.972L665.103 288C658.743 294.082 651.553 299.468 643.103 302.251C598.053 317.081 560.543 270.606 586.543 230C592.783 220.255 602.643 213.899 613.103 209.427C628.003 203.054 645.013 201 661.103 201C661.013 196.594 660.453 192.187 659.003 188ZM636.103 228.898C644.413 226.868 653.563 226.024 662.103 226C662.103 228.536 662.201 231.151 662.3 233.795C662.541 240.257 662.79 246.896 661.633 253C660.693 258.007 658.263 262.927 655.173 266.961C647.343 277.213 629.243 283.361 618.143 274.581C605.633 264.687 608.863 243.718 621.103 235.36C625.693 232.228 630.723 230.212 636.103 228.898Z" clip-rule="evenodd"/><path fill="#1B1918" d="M1272 6L1275 303H1306C1306 278.298 1305 253.725 1305 229C1305 218.097 1303.35 205.647 1305.9 195C1309.56 179.713 1322.44 163.25 1340 166.329C1355.2 168.994 1360.35 184.78 1362.41 198C1364.34 210.38 1362.71 223.495 1363.01 236C1363.55 257.971 1364 279.96 1364 302H1395C1395 276.645 1394 251.285 1394 226C1394 202.919 1395.26 179.882 1383.69 159C1368.93 132.374 1322.07 124.273 1306 155H1305L1304 5L1272 6Z"/><path fill="#1B1918" fill-rule="evenodd" d="M827 188H826C805.672 228.809 752.945 214.639 733.862 182C710.462 141.979 710.178 81.1201 731.259 40.0001C745.538 12.1475 777.947 -11.0605 809 6.87591C817.184 11.6032 822.213 18.1573 827.751 25.3742C828.164 25.9127 828.58 26.4548 829 27.0001V5.00012H858C858 22.1307 857.862 39.2803 857.725 56.4357C857.448 90.97 857.171 125.528 858.015 160C858.082 162.717 858.159 165.462 858.236 168.227C859.175 201.629 860.201 238.128 843.688 268C827.133 297.947 790.567 307.741 759 298.988C750.81 296.718 736.525 292.504 732.042 284.561C729.109 279.361 732.728 267.747 735.538 258.727C736.616 255.266 737.576 252.188 738 250C742.67 251.974 746.869 254.45 751.022 256.899C758.375 261.234 765.582 265.484 775 266.711C821.871 272.817 827 222.179 827 188ZM755.516 67.0001C760.661 51.7151 771.469 36.4187 789 35.5981C804.467 34.8741 814.286 47.3141 820.218 60.0001C826.213 72.8188 826.117 87.0005 826.023 100.871C826.012 102.587 826 104.297 826 106C826 108.152 826.019 110.299 826.039 112.441C826.156 125.509 826.271 138.378 821.996 151C817.674 163.759 807.773 178.237 793 178.96C774.033 179.888 762.227 166.838 756.053 150C746.65 124.354 746.823 92.8261 755.516 67.0001Z" clip-rule="evenodd"/><path fill="#1B1918" d="M1354.15 98.0281C1350.61 100.126 1350.26 105.537 1353.43 108.142C1356.43 110.601 1360.81 109.873 1363.99 112.318C1379.68 124.403 1393.73 143.986 1406.71 159C1410.82 163.749 1414.13 182.455 1422.89 177.806C1431.01 173.495 1423.26 154.27 1420.8 148C1412.73 127.46 1397.21 108.419 1376 100.695C1370.32 98.6271 1359.95 94.5921 1354.15 98.0281Z"/><path fill="#1B1918" d="M892 104L891 122L1247 124L1248 105L892 104Z"/><path fill="#1B1918" fill-rule="evenodd" d="M54 424L53 268C50.1401 268 46.5736 268.258 42.6607 268.54C29.6299 269.482 12.7567 270.701 5.34025 263.606C-0.904809 257.632 -0.0484253 244.861 0.630774 234.731C0.822424 231.873 0.999976 229.226 0.999976 227C0.999976 190.465 5.73649 150.447 27.7453 120C59.216 76.464 118.075 73 167 73V100C130.843 100 84.412 101.927 57.17 129.17C29.7688 156.571 28.0039 203.7 28 240H51C51 209.764 60.19 180.84 82.015 159.015C136.869 104.161 232.274 126.698 258.564 199C262.971 211.12 264 223.235 264 236C264 249.57 261.815 262.332 256.796 275C228.364 346.77 134.018 361.983 81 309V424H54ZM115 168.356C124.91 161.781 136.288 158.106 148 156.428C216.437 146.624 263.086 230.87 219.535 284C213.813 290.982 206.84 297.583 199 302.124C189.99 307.343 180.348 311.247 170 312.715C105.075 321.924 53.894 248.465 91.356 192C97.584 182.612 105.612 174.584 115 168.356Z" clip-rule="evenodd"/><path fill="#1B1918" d="M162 170C161.92 173.874 159.454 181.112 162.028 184.397C163.914 186.805 169.243 186.625 172 187.52C178.6 189.663 184.658 193.035 189.996 197.465C205.14 210.029 210.879 231.479 204.644 250C187.085 302.166 110.111 287.552 109 234H93C93.111 247.379 97.901 260.015 105.359 271C111.521 280.076 120.262 287.737 130 292.741C138.629 297.174 148.261 299.758 158 299.946C166.058 300.101 174.484 298.042 182 295.305C245.198 272.284 230.368 170.566 162 170Z"/><path fill="#1B1918" d="M925 149L926 163C935.5 153.505 944.49 147.299 958 145.429C961.63 144.927 969.35 144.55 971.98 147.742C976.027 152.672 975.114 164.55 974.424 173.523C974.2 176.433 974 179.037 974 181C972.073 180.848 970.213 180.613 968.394 180.384C962.171 179.6 956.415 178.874 950 181.684C938.37 186.782 932.465 199.091 930.59 211C927.558 230.264 928.411 251.156 929.244 271.558C929.624 280.875 930 290.09 930 299L905 300L896.028 298.397L895 287V259L893 149H925Z"/><path fill="#1B1918" fill-rule="evenodd" d="M1150 149L1151 165C1159.6 156.4 1167.84 149.151 1180 146.425C1249.59 130.83 1265.72 231.792 1237.3 276C1218.65 305.016 1179.63 312.455 1154 288L1155 425L1126 426L1124 266L1122 149H1150ZM1154 229C1154 208.573 1154.53 179.377 1180 173.529C1197.1 169.603 1210.76 181.793 1216.3 197C1225.22 221.455 1223.83 268.032 1192 274.985C1176.82 278.299 1163.35 268.401 1157.31 255C1153.9 247.448 1153.95 239.74 1153.99 231.727C1153.99 230.822 1154 229.913 1154 229Z" clip-rule="evenodd"/><path fill="#1B1918" fill-rule="evenodd" d="M522 167L523 3L554 4L556 300H527L526 284C516.708 293.285 507.153 300.268 494 302.739C408.612 318.782 390.506 175.501 468 155.156C476.664 152.881 485.199 152.752 494 154.001C504.835 155.538 513.519 160.274 522 167ZM481 180.468C434.685 189.205 442.512 285.668 494 276.384C539.917 268.105 533.479 170.567 481 180.468Z" clip-rule="evenodd"/><path fill="#1B1918" d="M153 218.653C131.781 225.308 143.588 258.063 165 251.347C186.219 244.692 174.412 211.937 153 218.653Z"/><path fill="#1B1918" fill-rule="evenodd" d="M360.899 186C350.647 156.518 315.316 171.803 297 182C296.728 181.385 296.382 180.637 295.989 179.787C293.124 173.585 287.759 161.975 290.121 157.329C292.703 152.252 302.635 149.049 308.509 147.155C309.042 146.983 309.542 146.822 310 146.671C331.492 139.589 360.303 138.632 377.829 155.3C398.789 175.232 397.096 211.1 395.663 241.458C395.283 249.49 394.922 257.136 395.004 264C395.08 270.382 395.813 276.731 396.547 283.078C397.159 288.382 397.772 293.684 398 299L369.603 298.972L367 286C360.64 292.082 353.454 297.468 345 300.251C299.954 315.081 262.442 268.606 288.443 228C294.683 218.255 304.544 211.899 315 207.427C329.905 201.054 346.913 199 363 199C362.909 194.594 362.355 190.187 360.899 186ZM338 226.898C346.314 224.868 355.458 224.024 364 224C364 226.536 364.097 229.151 364.196 231.795C364.437 238.257 364.684 244.896 363.532 251C362.588 256.007 360.155 260.927 357.073 264.961C349.237 275.213 331.139 281.362 320.04 272.581C307.534 262.687 310.757 241.718 323.004 233.36C327.592 230.228 332.618 228.212 338 226.898Z" clip-rule="evenodd"/><path fill="#1B1918" fill-rule="evenodd" d="M1058.9 188C1048.65 158.518 1013.32 173.803 995 184C994.727 183.383 994.38 182.632 993.986 181.779C991.121 175.574 985.764 163.973 988.12 159.329C990.705 154.252 1000.64 151.049 1006.51 149.155C1007.04 148.983 1007.54 148.822 1008 148.671C1029.49 141.589 1058.3 140.632 1075.83 157.3C1096.82 177.256 1095.1 213.468 1093.67 243.789C1093.31 251.339 1092.97 258.523 1093 265C1093.03 271.683 1093.79 278.327 1094.55 284.968C1095.16 290.308 1095.77 295.646 1096 301L1067.6 300.972L1065 288C1058.64 294.082 1051.45 299.468 1043 302.251C997.95 317.081 960.44 270.606 986.44 230C992.68 220.255 1002.54 213.899 1013 209.427C1027.9 203.054 1044.91 201 1061 201C1060.91 196.594 1060.35 192.187 1058.9 188ZM1036 228.898C1044.31 226.868 1053.46 226.024 1062 226C1062 228.536 1062.1 231.151 1062.2 233.795C1062.44 240.257 1062.69 246.896 1061.53 253C1060.59 258.007 1058.16 262.927 1055.07 266.961C1047.24 277.213 1029.14 283.361 1018.04 274.581C1005.53 264.687 1008.76 243.718 1021 235.36C1025.59 232.228 1030.62 230.212 1036 228.898Z" clip-rule="evenodd"/></g><defs><clipPath id="clip0_316_2"><rect width="1427" height="426" fill="#fff"/></clipPath></defs></svg>